<svg xmlns="http://www.w3.org/2000/svg" xmlns:xlink="http://www.w3.org/1999/xlink" viewBox="0 0 41.38 42.06"><defs><style>.cls-1{fill:url(#Dégradé_sans_nom_28);}.cls-1,.cls-2{filter:url(#luminosity-invert);}.cls-2{fill:url(#Dégradé_sans_nom_28-2);}.cls-3{mask:url(#mask);}.cls-4{fill:#fff;}.cls-5{mask:url(#mask-2);}</style><linearGradient id="Dégradé_sans_nom_28" x1="36.53" y1="10.96" x2="6.11" y2="10.96" gradientUnits="userSpaceOnUse"><stop offset="0"/><stop offset="0.2" stop-color="#393939"/><stop offset="0.89" stop-color="#fff"/></linearGradient><linearGradient id="Dégradé_sans_nom_28-2" x1="851.45" y1="-1384.45" x2="821.02" y2="-1384.45" gradientTransform="translate(856.29 -1353.35) rotate(180)" xlink:href="#Dégradé_sans_nom_28"/><filter id="luminosity-invert" filterUnits="userSpaceOnUse" color-interpolation-filters="sRGB"><feColorMatrix values="-1 0 0 0 1 0 -1 0 0 1 0 0 -1 0 1 0 0 0 1 0"/></filter><mask id="mask" x="0" y="0" width="41.38" height="21.92" maskUnits="userSpaceOnUse"><path class="cls-1" d="M38.1,21.92a3.27,3.27,0,0,1-3.23-2.83A14.5,14.5,0,0,0,20.53,6.54a14.65,14.65,0,0,0-2,.14,14.58,14.58,0,0,0-11.88,9.9,7.86,7.86,0,0,0-3.81-1,7.55,7.55,0,0,0-1.06.07,8.21,8.21,0,0,0-1.8.47A21.11,21.11,0,0,1,17.6.21h.07A21.59,21.59,0,0,1,20.56,0,21.05,21.05,0,0,1,41.35,18.21a3.27,3.27,0,0,1-2.81,3.68Z"/></mask><mask id="mask-2" x="0" y="20.14" width="41.38" height="21.92" maskUnits="userSpaceOnUse"><path class="cls-2" d="M3.28,20.14A3.28,3.28,0,0,1,6.51,23a14.51,14.51,0,0,0,25.92,6.82,14.24,14.24,0,0,0,2.28-4.32,7.69,7.69,0,0,0,3.8,1,9.43,9.43,0,0,0,1.06-.07,8.3,8.3,0,0,0,1.81-.47A21.15,21.15,0,0,1,23.77,41.85H23.7a21.33,21.33,0,0,1-2.88.2A21.05,21.05,0,0,1,0,23.85a3.25,3.25,0,0,1,.64-2.42,3.29,3.29,0,0,1,2.16-1.26A3.4,3.4,0,0,1,3.28,20.14Z"/></mask></defs><title>Fichier 7</title><g id="Calque_2" data-name="Calque 2"><g id="_9" data-name="9"><g class="cls-3"><path class="cls-4" d="M38.1,21.92a3.27,3.27,0,0,1-3.23-2.83A14.5,14.5,0,0,0,20.53,6.54a14.65,14.65,0,0,0-2,.14,14.58,14.58,0,0,0-11.88,9.9,7.86,7.86,0,0,0-3.81-1,7.55,7.55,0,0,0-1.06.07,8.21,8.21,0,0,0-1.8.47A21.11,21.11,0,0,1,17.6.21h.07A21.59,21.59,0,0,1,20.56,0,21.05,21.05,0,0,1,41.35,18.21a3.27,3.27,0,0,1-2.81,3.68Z"/></g><g class="cls-5"><path class="cls-4" d="M3.28,20.14A3.28,3.28,0,0,1,6.51,23a14.51,14.51,0,0,0,25.92,6.82,14.24,14.24,0,0,0,2.28-4.32,7.69,7.69,0,0,0,3.8,1,9.43,9.43,0,0,0,1.06-.07,8.3,8.3,0,0,0,1.81-.47A21.15,21.15,0,0,1,23.77,41.85H23.7a21.33,21.33,0,0,1-2.88.2A21.05,21.05,0,0,1,0,23.85a3.25,3.25,0,0,1,.64-2.42,3.29,3.29,0,0,1,2.16-1.26A3.4,3.4,0,0,1,3.28,20.14Z"/></g></g></g></svg>