<svg xmlns="http://www.w3.org/2000/svg" xmlns:xlink="http://www.w3.org/1999/xlink" viewBox="0 0 41.51 46.93"><defs><style>.cls-1{fill:url(#Blanc_Noir);}.cls-2{fill:url(#Blanc_Noir-2);}.cls-3{fill:url(#Blanc_Noir-3);}.cls-4{mask:url(#mask);}.cls-5{fill:#fff;}.cls-6{mask:url(#mask-2);}.cls-7{mask:url(#mask-3);}</style><linearGradient id="Blanc_Noir" x1="-2786.22" y1="-1704.99" x2="-2749.9" y2="-1704.99" gradientTransform="matrix(0.85, -0.52, -0.52, -0.85, 1495.76, -2858.58)" gradientUnits="userSpaceOnUse"><stop offset="0" stop-color="#fff"/><stop offset="1"/></linearGradient><linearGradient id="Blanc_Noir-2" x1="-1152.05" y1="-2674.61" x2="-1115.72" y2="-2674.61" gradientTransform="translate(445.82 -2858.58) rotate(-148.7)" xlink:href="#Blanc_Noir"/><linearGradient id="Blanc_Noir-3" x1="1036.92" y1="-1365.45" x2="1073.24" y2="-1365.45" gradientTransform="matrix(0.02, 1, 1, -0.02, 1343.45, -1068.8)" xlink:href="#Blanc_Noir"/><mask id="mask" x="0" y="24.35" width="33.61" height="22.58" maskUnits="userSpaceOnUse"><path class="cls-1" d="M30.21,24.35l3.4,5.59L5,46.45H5a3.27,3.27,0,0,1-3.41-5.59Z"/></mask><mask id="mask-2" x="7.9" y="3.97" width="33.61" height="22.58" maskUnits="userSpaceOnUse"><path class="cls-2" d="M40,20.48a3.27,3.27,0,0,1-3.41,5.59h0L7.9,9.55,11.3,4Z"/></mask><mask id="mask-3" x="0.01" y="0" width="6.55" height="36.41" maskUnits="userSpaceOnUse"><path class="cls-3" d="M6.56,36.25,0,36.41v-33H0a3.27,3.27,0,0,1,6.54-.17Z"/></mask></defs><title>Fichier 6</title><g id="Calque_2" data-name="Calque 2"><g id="_9" data-name="9"><g class="cls-4"><path class="cls-5" d="M30.21,24.35l3.4,5.59L5,46.45H5a3.27,3.27,0,0,1-3.41-5.59Z"/></g><g class="cls-6"><path class="cls-5" d="M40,20.48a3.27,3.27,0,0,1-3.41,5.59h0L7.9,9.55,11.3,4Z"/></g><g class="cls-7"><path class="cls-5" d="M6.56,36.25,0,36.41v-33H0a3.27,3.27,0,0,1,6.54-.17Z"/></g></g></g></svg>