<svg xmlns="http://www.w3.org/2000/svg" xmlns:xlink="http://www.w3.org/1999/xlink" viewBox="0 0 41.56 41.56"><defs><style>.cls-1{fill:url(#Blanc_Noir);}.cls-2{fill:url(#Blanc_Noir-2);}.cls-3{fill:url(#Blanc_Noir-3);}.cls-4{fill:url(#Blanc_Noir-4);}.cls-5{mask:url(#mask);}.cls-6{fill:#fff;}</style><linearGradient id="Blanc_Noir" x1="-2440.75" y1="681.78" x2="-2406.73" y2="681.78" gradientTransform="translate(-598.89 -2411.42) rotate(-88.94)" gradientUnits="userSpaceOnUse"><stop offset="0" stop-color="#fff"/><stop offset="1"/></linearGradient><linearGradient id="Blanc_Noir-2" x1="-475.18" y1="441.57" x2="-441.16" y2="441.57" gradientTransform="translate(483.3 -394.84) rotate(1.06)" xlink:href="#Blanc_Noir"/><linearGradient id="Blanc_Noir-3" x1="-706.62" y1="-1528.71" x2="-672.6" y2="-1528.71" gradientTransform="translate(-1537.82 678.27) rotate(91.06)" xlink:href="#Blanc_Noir"/><linearGradient id="Blanc_Noir-4" x1="-2744.29" y1="-1344.85" x2="-2710.27" y2="-1344.85" gradientTransform="translate(-2677.44 -1391.63) rotate(-178.94)" xlink:href="#Blanc_Noir"/><mask id="mask" x="0" y="0" width="41.56" height="41.56" maskUnits="userSpaceOnUse"><path class="cls-1" d="M41.37,38.32a3.27,3.27,0,0,1-6.54-.13h0L34.7,7.43l6.54.13Z"/><path class="cls-2" d="M3.24,41.56A3.28,3.28,0,0,1,3.37,35h0l30.74-.13L34,41.42Z"/><path class="cls-3" d="M0,3.2a3.27,3.27,0,0,1,6.54.13h0l.13,30.75L.13,34Z"/><path class="cls-4" d="M38.35,0a3.27,3.27,0,0,1-.13,6.54h0L7.47,6.67,7.6.13Z"/></mask></defs><title>Fichier 5</title><g id="Calque_2" data-name="Calque 2"><g id="_9" data-name="9"><g class="cls-5"><path class="cls-6" d="M41.37,38.32a3.27,3.27,0,0,1-6.54-.13h0L34.7,7.43l6.54.13Z"/><path class="cls-6" d="M3.24,41.56A3.28,3.28,0,0,1,3.37,35h0l30.74-.13L34,41.42Z"/><path class="cls-6" d="M0,3.2a3.27,3.27,0,0,1,6.54.13h0l.13,30.75L.13,34Z"/><path class="cls-6" d="M38.35,0a3.27,3.27,0,0,1-.13,6.54h0L7.47,6.67,7.6.13Z"/></g></g></g></svg>