<svg xmlns="http://www.w3.org/2000/svg" xmlns:xlink="http://www.w3.org/1999/xlink" viewBox="0 0 43.22 43.22"><defs><style>.cls-1{fill:url(#Blanc_Noir);}.cls-2{fill:url(#Blanc_Noir-2);}.cls-3{fill:url(#Blanc_Noir-3);}.cls-4{fill:url(#Blanc_Noir-4);}.cls-5{mask:url(#mask);}.cls-6{fill:#fff;}</style><linearGradient id="Blanc_Noir" x1="-3358.65" y1="-1113.9" x2="-3381.52" y2="-1113.9" gradientTransform="matrix(-0.4, 0.91, -0.91, -0.4, -2357.57, 2663.81)" gradientUnits="userSpaceOnUse"><stop offset="0" stop-color="#fff"/><stop offset="1"/></linearGradient><linearGradient id="Blanc_Noir-2" x1="-2887.19" y1="1568.27" x2="-2910.05" y2="1568.27" gradientTransform="matrix(-0.91, -0.4, 0.4, -0.91, -3273.42, 286.32)" xlink:href="#Blanc_Noir"/><linearGradient id="Blanc_Noir-3" x1="-205.02" y1="1096.8" x2="-227.88" y2="1096.82" gradientTransform="matrix(0.4, -0.91, 0.91, 0.4, -895.93, -629.53)" xlink:href="#Blanc_Noir"/><linearGradient id="Blanc_Noir-4" x1="-676.48" y1="-1585.37" x2="-699.34" y2="-1585.37" gradientTransform="matrix(0.91, 0.4, -0.4, 0.91, 19.92, 1747.95)" xlink:href="#Blanc_Noir"/><mask id="mask" x="0" y="0" width="43.22" height="43.22" maskUnits="userSpaceOnUse"><path class="cls-1" d="M36,28.58l0,.06A19.78,19.78,0,0,1,35,31.25,20.15,20.15,0,0,1,11,42.42a3.11,3.11,0,0,1-2.14-3.88,3.73,3.73,0,0,1,.14-.4,3.15,3.15,0,0,1,3.74-1.74,13.87,13.87,0,0,0,16.55-7.71,13.93,13.93,0,0,0-.53-12.38S37.43,23.42,36,28.58Z"/><path class="cls-2" d="M14.65,36l-.07,0A19.78,19.78,0,0,1,12,35,20.17,20.17,0,0,1,.8,11,3.12,3.12,0,0,1,4.68,8.84L5.09,9a3.14,3.14,0,0,1,1.73,3.74,13.9,13.9,0,0,0,7.71,16.55,14.17,14.17,0,0,0,1.79.65,13.9,13.9,0,0,0,10.6-1.18S19.8,37.43,14.65,36Z"/><path class="cls-3" d="M7.26,14.65l0-.07a21.37,21.37,0,0,1,1-2.61A20.17,20.17,0,0,1,32.25.8a3.08,3.08,0,0,1,1.87,1.5,3.09,3.09,0,0,1,.27,2.38,2.86,2.86,0,0,1-.15.41,3.13,3.13,0,0,1-3.73,1.73A13.92,13.92,0,0,0,14,14.53a14.12,14.12,0,0,0-.64,1.79,13.81,13.81,0,0,0,1.18,10.6S5.79,19.8,7.26,14.65Z"/><path class="cls-4" d="M28.58,7.26l.06,0a21.37,21.37,0,0,1,2.61,1,20.15,20.15,0,0,1,11.17,24,3.13,3.13,0,0,1-3.88,2.14,2.37,2.37,0,0,1-.4-.15,3.13,3.13,0,0,1-1.74-3.73A13.89,13.89,0,0,0,28.69,14a14,14,0,0,0-1.78-.64,13.8,13.8,0,0,0-10.6,1.18S23.42,5.79,28.58,7.26Z"/></mask></defs><title>Fichier 8</title><g id="Calque_2" data-name="Calque 2"><g id="_9" data-name="9"><g class="cls-5"><path class="cls-6" d="M36,28.58l0,.06A19.78,19.78,0,0,1,35,31.25,20.15,20.15,0,0,1,11,42.42a3.11,3.11,0,0,1-2.14-3.88,3.73,3.73,0,0,1,.14-.4,3.15,3.15,0,0,1,3.74-1.74,13.87,13.87,0,0,0,16.55-7.71,13.93,13.93,0,0,0-.53-12.38S37.43,23.42,36,28.58Z"/><path class="cls-6" d="M14.65,36l-.07,0A19.78,19.78,0,0,1,12,35,20.17,20.17,0,0,1,.8,11,3.12,3.12,0,0,1,4.68,8.84L5.09,9a3.14,3.14,0,0,1,1.73,3.74,13.9,13.9,0,0,0,7.71,16.55,14.17,14.17,0,0,0,1.79.65,13.9,13.9,0,0,0,10.6-1.18S19.8,37.43,14.65,36Z"/><path class="cls-6" d="M7.26,14.65l0-.07a21.37,21.37,0,0,1,1-2.61A20.17,20.17,0,0,1,32.25.8a3.08,3.08,0,0,1,1.87,1.5,3.09,3.09,0,0,1,.27,2.38,2.86,2.86,0,0,1-.15.41,3.13,3.13,0,0,1-3.73,1.73A13.92,13.92,0,0,0,14,14.53a14.12,14.12,0,0,0-.64,1.79,13.81,13.81,0,0,0,1.18,10.6S5.79,19.8,7.26,14.65Z"/><path class="cls-6" d="M28.58,7.26l.06,0a21.37,21.37,0,0,1,2.61,1,20.15,20.15,0,0,1,11.17,24,3.13,3.13,0,0,1-3.88,2.14,2.37,2.37,0,0,1-.4-.15,3.13,3.13,0,0,1-1.74-3.73A13.89,13.89,0,0,0,28.69,14a14,14,0,0,0-1.78-.64,13.8,13.8,0,0,0-10.6,1.18S23.42,5.79,28.58,7.26Z"/></g></g></g></svg>