<svg xmlns="http://www.w3.org/2000/svg" xmlns:xlink="http://www.w3.org/1999/xlink" viewBox="0 0 41.56 32.41"><defs><style>.cls-1{fill:url(#Blanc_Noir);}.cls-2{fill:url(#Blanc_Noir-2);}.cls-3{fill:url(#Blanc_Noir-3);}.cls-4{mask:url(#mask);}.cls-5{fill:#fff;}.cls-6{mask:url(#mask-2);}.cls-7{mask:url(#mask-3);}</style><linearGradient id="Blanc_Noir" x1="-0.31" y1="-6.12" x2="41.24" y2="-6.12" gradientTransform="translate(0.29 9.31) rotate(0.25)" gradientUnits="userSpaceOnUse"><stop offset="0" stop-color="#fff"/><stop offset="1"/></linearGradient><linearGradient id="Blanc_Noir-2" x1="-3808.71" y1="234.8" x2="-3767.15" y2="234.8" gradientTransform="translate(-3768.13 234.92) rotate(-179.75)" xlink:href="#Blanc_Noir"/><linearGradient id="Blanc_Noir-3" x1="-0.6" y1="-72.22" x2="40.96" y2="-72.22" gradientTransform="matrix(1, 0, 0, 1, 0.29, 101.27)" xlink:href="#Blanc_Noir"/><mask id="mask" x="0" y="0" width="41.56" height="6.56" maskUnits="userSpaceOnUse"><path class="cls-1" d="M38.2,6.56h0A3.27,3.27,0,0,0,38.37,0l-35,0h0a3.27,3.27,0,0,0-.16,6.54Z"/></mask><mask id="mask-2" x="0" y="13.12" width="41.56" height="6.56" maskUnits="userSpaceOnUse"><path class="cls-2" d="M3.36,13.12h0a3.27,3.27,0,0,0-.16,6.54l35,0h0a3.27,3.27,0,0,0,.16-6.54Z"/></mask><mask id="mask-3" x="0" y="25.85" width="41.56" height="6.56" maskUnits="userSpaceOnUse"><path class="cls-3" d="M38.2,32.41h0a3.27,3.27,0,0,0,.16-6.54l-35,0h0a3.27,3.27,0,0,0-.16,6.54Z"/></mask></defs><title>Fichier 11</title><g id="Calque_2" data-name="Calque 2"><g id="_9" data-name="9"><g class="cls-4"><path class="cls-5" d="M38.2,6.56h0A3.27,3.27,0,0,0,38.37,0l-35,0h0a3.27,3.27,0,0,0-.16,6.54Z"/></g><g class="cls-6"><path class="cls-5" d="M3.36,13.12h0a3.27,3.27,0,0,0-.16,6.54l35,0h0a3.27,3.27,0,0,0,.16-6.54Z"/></g><g class="cls-7"><path class="cls-5" d="M38.2,32.41h0a3.27,3.27,0,0,0,.16-6.54l-35,0h0a3.27,3.27,0,0,0-.16,6.54Z"/></g><circle class="cls-5" cx="38.28" cy="3.28" r="3.28"/><circle class="cls-5" cx="3.28" cy="16.4" r="3.28"/><circle class="cls-5" cx="38.28" cy="29.13" r="3.28"/></g></g></svg>