<svg xmlns="http://www.w3.org/2000/svg" xmlns:xlink="http://www.w3.org/1999/xlink" viewBox="0 0 50 47.88"><defs><style>.cls-1{fill:url(#Blanc_Noir);}.cls-2{fill:url(#Blanc_Noir-2);}.cls-3{fill:url(#Blanc_Noir-3);}.cls-4{fill:url(#Blanc_Noir-4);}.cls-5{fill:url(#Blanc_Noir-5);}.cls-6{fill:url(#Dégradé_sans_nom_3);}.cls-7{fill:url(#Dégradé_sans_nom_3-2);}.cls-8{fill:url(#Dégradé_sans_nom_3-3);}.cls-9{fill:url(#Dégradé_sans_nom_3-4);}.cls-10{fill:url(#Dégradé_sans_nom_3-5);}.cls-11{fill:url(#Dégradé_sans_nom_3-6);}.cls-12{fill:url(#Dégradé_sans_nom_3-7);}.cls-13{fill:url(#Dégradé_sans_nom_3-8);}.cls-14{fill:url(#Dégradé_sans_nom_3-9);}.cls-15{fill:url(#Dégradé_sans_nom_3-10);}.cls-16{fill:url(#Blanc_Noir-6);}.cls-17{fill:url(#Blanc_Noir-7);}.cls-18{fill:url(#Blanc_Noir-8);}.cls-19{fill:url(#Blanc_Noir-9);}.cls-20{fill:url(#Blanc_Noir-10);}.cls-21{fill:url(#Dégradé_sans_nom_3-11);}.cls-22{fill:url(#Dégradé_sans_nom_3-12);}.cls-23{fill:url(#Dégradé_sans_nom_3-13);}.cls-24{fill:url(#Dégradé_sans_nom_3-14);}.cls-25{fill:url(#Dégradé_sans_nom_3-15);}.cls-26{mask:url(#mask);}.cls-27{fill:#fff;}.cls-28{mask:url(#mask-2);}.cls-29{mask:url(#mask-3);}.cls-30{mask:url(#mask-4);}.cls-31{mask:url(#mask-5);}</style><linearGradient id="Blanc_Noir" x1="-133.3" y1="490.7" x2="-91.63" y2="490.7" gradientTransform="matrix(0.81, -0.59, 0.59, 0.81, -171.64, -428.78)" gradientUnits="userSpaceOnUse"><stop offset="0" stop-color="#fff"/><stop offset="1"/></linearGradient><linearGradient id="Blanc_Noir-2" x1="-133.31" y1="478.46" x2="-91.63" y2="478.46" xlink:href="#Blanc_Noir"/><linearGradient id="Blanc_Noir-3" x1="-133.31" y1="468.62" x2="-91.63" y2="468.62" xlink:href="#Blanc_Noir"/><linearGradient id="Blanc_Noir-4" x1="-133.31" y1="483.93" x2="-91.63" y2="483.93" xlink:href="#Blanc_Noir"/><linearGradient id="Blanc_Noir-5" x1="-133.31" y1="480.89" x2="-91.63" y2="480.89" xlink:href="#Blanc_Noir"/><linearGradient id="Dégradé_sans_nom_3" x1="-549.88" y1="-672.66" x2="-508.26" y2="-672.66" gradientTransform="translate(-445.78 737.22) rotate(72.21)" gradientUnits="userSpaceOnUse"><stop offset="0"/><stop offset="1" stop-color="#fff"/></linearGradient><linearGradient id="Dégradé_sans_nom_3-2" x1="-549.88" y1="-650.54" x2="-508.26" y2="-650.54" xlink:href="#Dégradé_sans_nom_3"/><linearGradient id="Dégradé_sans_nom_3-3" x1="-549.88" y1="-665.89" x2="-508.26" y2="-665.89" xlink:href="#Dégradé_sans_nom_3"/><linearGradient id="Dégradé_sans_nom_3-4" x1="-549.88" y1="-660.42" x2="-508.26" y2="-660.42" xlink:href="#Dégradé_sans_nom_3"/><linearGradient id="Dégradé_sans_nom_3-5" x1="-549.88" y1="-662.85" x2="-508.26" y2="-662.85" xlink:href="#Dégradé_sans_nom_3"/><linearGradient id="Dégradé_sans_nom_3-6" x1="8.33" y1="41.08" x2="50.01" y2="41.08" gradientTransform="matrix(1, 0, 0, 1, 0, 0)" xlink:href="#Dégradé_sans_nom_3"/><linearGradient id="Dégradé_sans_nom_3-7" x1="8.33" y1="25.81" x2="50.01" y2="25.81" gradientTransform="matrix(1, 0, 0, 1, 0, 0)" xlink:href="#Dégradé_sans_nom_3"/><linearGradient id="Dégradé_sans_nom_3-8" x1="8.33" y1="31.28" x2="50.01" y2="31.28" gradientTransform="matrix(1, 0, 0, 1, 0, 0)" xlink:href="#Dégradé_sans_nom_3"/><linearGradient id="Dégradé_sans_nom_3-9" x1="8.33" y1="28.85" x2="50.01" y2="28.85" gradientTransform="matrix(1, 0, 0, 1, 0, 0)" xlink:href="#Dégradé_sans_nom_3"/><linearGradient id="Dégradé_sans_nom_3-10" x1="8.33" y1="19.04" x2="50.01" y2="19.04" gradientTransform="matrix(1, 0, 0, 1, 0, 0)" xlink:href="#Dégradé_sans_nom_3"/><linearGradient id="Blanc_Noir-6" x1="-143.53" y1="-372.14" x2="-101.86" y2="-372.14" gradientTransform="translate(-102.31 402.49) rotate(36.04)" xlink:href="#Blanc_Noir"/><linearGradient id="Blanc_Noir-7" x1="-143.54" y1="-384.37" x2="-101.86" y2="-384.37" gradientTransform="translate(-102.31 402.49) rotate(36.04)" xlink:href="#Blanc_Noir"/><linearGradient id="Blanc_Noir-8" x1="-143.54" y1="-378.9" x2="-101.86" y2="-378.9" gradientTransform="translate(-102.31 402.49) rotate(36.04)" xlink:href="#Blanc_Noir"/><linearGradient id="Blanc_Noir-9" x1="-143.54" y1="-394.2" x2="-101.86" y2="-394.2" gradientTransform="translate(-102.31 402.49) rotate(36.04)" xlink:href="#Blanc_Noir"/><linearGradient id="Blanc_Noir-10" x1="-143.54" y1="-381.95" x2="-101.86" y2="-381.95" gradientTransform="translate(-102.31 402.49) rotate(36.04)" xlink:href="#Blanc_Noir"/><linearGradient id="Dégradé_sans_nom_3-11" x1="-510.05" y1="749.89" x2="-468.38" y2="749.89" gradientTransform="translate(-530.43 -673.6) rotate(-71.96)" xlink:href="#Dégradé_sans_nom_3"/><linearGradient id="Dégradé_sans_nom_3-12" x1="-510.05" y1="744.42" x2="-468.38" y2="744.42" gradientTransform="translate(-530.43 -673.6) rotate(-71.96)" xlink:href="#Dégradé_sans_nom_3"/><linearGradient id="Dégradé_sans_nom_3-13" x1="-510.05" y1="759.74" x2="-468.38" y2="759.74" gradientTransform="translate(-530.43 -673.6) rotate(-71.96)" xlink:href="#Dégradé_sans_nom_3"/><linearGradient id="Dégradé_sans_nom_3-14" x1="-510.05" y1="747.46" x2="-468.38" y2="747.46" gradientTransform="translate(-530.43 -673.6) rotate(-71.96)" xlink:href="#Dégradé_sans_nom_3"/><linearGradient id="Dégradé_sans_nom_3-15" x1="-510.05" y1="737.67" x2="-468.38" y2="737.67" gradientTransform="translate(-530.43 -673.6) rotate(-71.96)" xlink:href="#Dégradé_sans_nom_3"/><mask id="mask" x="8.33" y="2.11" width="16.66" height="45.76" maskUnits="userSpaceOnUse"><path class="cls-1" d="M14.51,45.68l3-9.26L9.64,42.14A3.23,3.23,0,0,0,8.46,43.8c0,.06,0,.12,0,.18l0,.14,0,.15a1,1,0,0,1,0,.17v.13a1.09,1.09,0,0,0,0,.18s0,.09,0,.13,0,.11,0,.17,0,.1,0,.15l0,.14a.75.75,0,0,0,0,.16l0,.13.06.17.05.12a.77.77,0,0,0,.07.16.83.83,0,0,0,.07.13l.07.13.1.15.07.1a2.31,2.31,0,0,0,.2.24l0,0,.25.24.08.06.2.15.11.07.19.11.12.06.19.08.14,0,.3.09h0a1.8,1.8,0,0,0,.32.06h.06l.34,0a2.69,2.69,0,0,0,.4,0H12l.08,0,.16,0h0a3.54,3.54,0,0,0,.83-.34l.06,0,.06,0,.15-.09A3.24,3.24,0,0,0,14.51,45.68Z"/><polygon class="cls-2" points="15.49 22.17 15 23.7 20.38 27.62 22.15 22.18 15.49 22.17"/><path class="cls-3" d="M25,13.42,22,4.14a3.2,3.2,0,0,1,0-2l0,.08L17.55,15.84H24.2Z"/><path class="cls-4" d="M9.64,42.14l7.88-5.72.8-2.47L12.94,30,8.49,43.72l0,.08A3.23,3.23,0,0,1,9.64,42.14Z"/><polygon class="cls-5" points="20.38 27.62 15 23.7 12.94 30.03 18.32 33.95 20.38 27.62"/></mask><mask id="mask-2" x="1.23" y="21.49" width="40.39" height="26.39" maskUnits="userSpaceOnUse"><path class="cls-6" d="M40.32,42.16l-7.87-5.74,3,9.27a3.18,3.18,0,0,0,1.15,1.59l.15.1.07,0,.07,0a3.51,3.51,0,0,0,.83.33h0l.17,0,.08,0h.08l.41,0a1.83,1.83,0,0,0,.33,0h.06a3,3,0,0,0,.32-.06h0c.1,0,.2-.06.3-.09l.13-.05.19-.08.13-.07.18-.1.11-.07.2-.15.08-.06a1.88,1.88,0,0,0,.25-.24s0,0,0,0l.19-.23.08-.11.09-.14.08-.14a.83.83,0,0,1,.07-.13l.07-.16s0-.08,0-.12l.06-.17,0-.12c0-.06,0-.11,0-.17a.59.59,0,0,0,0-.14.77.77,0,0,0,0-.15c0-.06,0-.11,0-.16V44.6a.66.66,0,0,0,0-.14,1,1,0,0,0,0-.17.59.59,0,0,0,0-.14l0-.15a.84.84,0,0,0,0-.17A3.14,3.14,0,0,0,40.32,42.16Z"/><path class="cls-7" d="M12.89,22.17H3.16a3.18,3.18,0,0,1-1.93-.67l.07.06L12.94,30,15,23.7Z"/><path class="cls-8" d="M35.45,45.69l-3-9.27-2.08-1.51L25,38.82,36.6,47.28h0A3.18,3.18,0,0,1,35.45,45.69Z"/><polygon class="cls-9" points="18.32 33.95 19.61 34.9 25 30.99 20.38 27.62 18.32 33.95"/><polygon class="cls-10" points="25 30.99 19.61 34.9 24.99 38.82 30.37 34.91 25 30.99"/></mask><mask id="mask-3" x="13.35" y="15.88" width="36.66" height="31.39" maskUnits="userSpaceOnUse"><path class="cls-11" d="M17.52,36.42l-3,9.26a3.24,3.24,0,0,1-1.16,1.59h0L25,38.82,19.61,34.9Z"/><path class="cls-12" d="M46.84,22.2H37.11L35,23.73l2,6.34L48.7,21.6l.07-.06a3.09,3.09,0,0,1-1.93.66Z"/><polygon class="cls-13" points="30.37 34.91 31.66 33.98 29.6 27.64 25 30.99 30.37 34.91"/><polygon class="cls-14" points="29.6 27.64 31.66 33.98 37.04 30.07 34.99 23.73 29.6 27.64"/><path class="cls-15" d="M49.32,21a1.71,1.71,0,0,0,.11-.14l.07-.11.09-.14c0-.05,0-.09.07-.13l.06-.14a1,1,0,0,0,.07-.15l0-.13.06-.16,0-.13,0-.17,0-.15c0-.05,0-.1,0-.15a1,1,0,0,0,0-.17A.66.66,0,0,0,50,19v-.18s0-.09,0-.13a1.1,1.1,0,0,0,0-.18l0-.13a.75.75,0,0,0,0-.16.83.83,0,0,0,0-.15,1.21,1.21,0,0,0-.05-.14l-.06-.15-.06-.12c0-.06,0-.11-.08-.16l-.07-.11a.86.86,0,0,0-.1-.16l-.08-.11L49.24,17l-.1-.12-.11-.1-.12-.12-.11-.08-.13-.11-.12-.07-.14-.09-.13-.07-.14-.06a.52.52,0,0,0-.15-.07l-.13,0L47.7,16l-.13,0-.16,0-.16,0h-.32a3.12,3.12,0,0,0-2,.6l-7.87,5.71h9.73a3.09,3.09,0,0,0,1.93-.66l.13-.1.12-.11.1-.1.12-.13Z"/></mask><mask id="mask-4" x="0" y="15.83" width="46.93" height="6.37" maskUnits="userSpaceOnUse"><path class="cls-16" d="M12.89,22.17,5,16.43a3.14,3.14,0,0,0-1.95-.6H2.91l-.16,0-.14,0-.17,0-.13,0L2.15,16,2,16a.61.61,0,0,0-.14.07l-.14.06-.13.07-.15.09-.1.07-.15.11-.1.08L1,16.71a.94.94,0,0,1-.1.1l-.1.12a.69.69,0,0,0-.11.13.76.76,0,0,0-.08.11,1.3,1.3,0,0,0-.1.15.75.75,0,0,0-.07.12,1.09,1.09,0,0,0-.08.15l-.06.13a.94.94,0,0,0-.06.15L.15,18a.74.74,0,0,1,0,.14c0,.05,0,.11,0,.16s0,.09,0,.14l0,.17c0,.05,0,.09,0,.13s0,.12,0,.19v.13c0,.06,0,.12,0,.18a.77.77,0,0,0,0,.15.77.77,0,0,0,0,.15l0,.16a.5.5,0,0,0,0,.13A1.09,1.09,0,0,0,.17,20s0,.08,0,.12.05.11.07.16l.06.13.07.14.09.13.08.12.1.14.08.1.12.13.1.1.12.1.13.11a3.18,3.18,0,0,0,1.93.67Z"/><polygon class="cls-17" points="25.79 15.85 24.2 15.85 22.15 22.18 27.84 22.18 25.79 15.85"/><path class="cls-18" d="M5,16.43l7.86,5.74H15.5l2.05-6.33H3.08A3.14,3.14,0,0,1,5,16.43Z"/><path class="cls-19" d="M37.11,22.19,45,16.48a3.12,3.12,0,0,1,2-.6H32.44l2.05,6.33Z"/><polygon class="cls-20" points="22.15 22.18 24.2 15.85 17.55 15.84 15.49 22.17 22.15 22.18"/></mask><mask id="mask-5" x="21.84" y="0" width="19.65" height="43.83" maskUnits="userSpaceOnUse"><polygon class="cls-21" points="27.84 22.18 29.6 27.64 34.99 23.73 34.49 22.19 27.84 22.18"/><path class="cls-22" d="M28,4.14l-3,9.28.79,2.43h6.65L28,2.19l0-.08A3.07,3.07,0,0,1,28,4.14Z"/><path class="cls-23" d="M32.45,36.42l7.87,5.74a3.14,3.14,0,0,1,1.17,1.67.29.29,0,0,0,0-.09L37,30.07,31.66,34Z"/><polygon class="cls-24" points="27.84 22.18 34.49 22.19 32.44 15.86 25.79 15.85 27.84 22.18"/><path class="cls-25" d="M22,4.14l3,9.28,3-9.28a3.07,3.07,0,0,0,0-2l-.06-.17-.06-.14s-.05-.08-.07-.13l-.08-.15a1,1,0,0,1-.08-.11l-.1-.14a.76.76,0,0,0-.08-.11L27.34,1a.52.52,0,0,0-.1-.11,1.14,1.14,0,0,0-.11-.11L27,.72,26.9.63,26.76.54,26.64.46,26.5.38,26.36.31,26.23.25,26.06.18l-.12,0L25.75.09l-.12,0-.18,0h-.89l-.18,0-.12,0-.19.05L24,.18l-.17.07-.13.06a.61.61,0,0,0-.14.07l-.14.08-.12.07-.14.1L23,.72l-.12.1-.11.11a.94.94,0,0,0-.1.1l-.11.13-.09.1-.1.15-.07.11a1.09,1.09,0,0,0-.08.15.83.83,0,0,0-.07.13l-.06.14a.87.87,0,0,0-.07.17A3.2,3.2,0,0,0,22,4.14Z"/></mask></defs><title>Fichier 12</title><g id="Calque_2" data-name="Calque 2"><g id="_9" data-name="9"><g class="cls-26"><path class="cls-27" d="M14.51,45.68l3-9.26L9.64,42.14A3.23,3.23,0,0,0,8.46,43.8c0,.06,0,.12,0,.18l0,.14,0,.15a1,1,0,0,1,0,.17v.13a1.09,1.09,0,0,0,0,.18s0,.09,0,.13,0,.11,0,.17,0,.1,0,.15l0,.14a.75.75,0,0,0,0,.16l0,.13.06.17.05.12a.77.77,0,0,0,.07.16.83.83,0,0,0,.07.13l.07.13.1.15.07.1a2.31,2.31,0,0,0,.2.24l0,0,.25.24.08.06.2.15.11.07.19.11.12.06.19.08.14,0,.3.09h0a1.8,1.8,0,0,0,.32.06h.06l.34,0a2.69,2.69,0,0,0,.4,0H12l.08,0,.16,0h0a3.54,3.54,0,0,0,.83-.34l.06,0,.06,0,.15-.09A3.24,3.24,0,0,0,14.51,45.68Z"/><polygon class="cls-27" points="15.49 22.17 15 23.7 20.38 27.62 22.15 22.18 15.49 22.17"/><path class="cls-27" d="M25,13.42,22,4.14a3.2,3.2,0,0,1,0-2l0,.08L17.55,15.84H24.2Z"/><path class="cls-27" d="M9.64,42.14l7.88-5.72.8-2.47L12.94,30,8.49,43.72l0,.08A3.23,3.23,0,0,1,9.64,42.14Z"/><polygon class="cls-27" points="20.38 27.62 15 23.7 12.94 30.03 18.32 33.95 20.38 27.62"/></g><g class="cls-28"><path class="cls-27" d="M40.32,42.16l-7.87-5.74,3,9.27a3.18,3.18,0,0,0,1.15,1.59l.15.1.07,0,.07,0a3.51,3.51,0,0,0,.83.33h0l.17,0,.08,0h.08l.41,0a1.83,1.83,0,0,0,.33,0h.06a3,3,0,0,0,.32-.06h0c.1,0,.2-.06.3-.09l.13-.05.19-.08.13-.07.18-.1.11-.07.2-.15.08-.06a1.88,1.88,0,0,0,.25-.24s0,0,0,0l.19-.23.08-.11.09-.14.08-.14a.83.83,0,0,1,.07-.13l.07-.16s0-.08,0-.12l.06-.17,0-.12c0-.06,0-.11,0-.17a.59.59,0,0,0,0-.14.77.77,0,0,0,0-.15c0-.06,0-.11,0-.16V44.6a.66.66,0,0,0,0-.14,1,1,0,0,0,0-.17.59.59,0,0,0,0-.14l0-.15a.84.84,0,0,0,0-.17A3.14,3.14,0,0,0,40.32,42.16Z"/><path class="cls-27" d="M12.89,22.17H3.16a3.18,3.18,0,0,1-1.93-.67l.07.06L12.94,30,15,23.7Z"/><path class="cls-27" d="M35.45,45.69l-3-9.27-2.08-1.51L25,38.82,36.6,47.28h0A3.18,3.18,0,0,1,35.45,45.69Z"/><polygon class="cls-27" points="18.32 33.95 19.61 34.9 25 30.99 20.38 27.62 18.32 33.95"/><polygon class="cls-27" points="25 30.99 19.61 34.9 24.99 38.82 30.37 34.91 25 30.99"/></g><g class="cls-29"><path class="cls-27" d="M17.52,36.42l-3,9.26a3.24,3.24,0,0,1-1.16,1.59h0L25,38.82,19.61,34.9Z"/><path class="cls-27" d="M46.84,22.2H37.11L35,23.73l2,6.34L48.7,21.6l.07-.06a3.09,3.09,0,0,1-1.93.66Z"/><polygon class="cls-27" points="30.37 34.91 31.66 33.98 29.6 27.64 25 30.99 30.37 34.91"/><polygon class="cls-27" points="29.6 27.64 31.66 33.98 37.04 30.07 34.99 23.73 29.6 27.64"/><path class="cls-27" d="M49.32,21a1.71,1.71,0,0,0,.11-.14l.07-.11.09-.14c0-.05,0-.09.07-.13l.06-.14a1,1,0,0,0,.07-.15l0-.13.06-.16,0-.13,0-.17,0-.15c0-.05,0-.1,0-.15a1,1,0,0,0,0-.17A.66.66,0,0,0,50,19v-.18s0-.09,0-.13a1.1,1.1,0,0,0,0-.18l0-.13a.75.75,0,0,0,0-.16.83.83,0,0,0,0-.15,1.21,1.21,0,0,0-.05-.14l-.06-.15-.06-.12c0-.06,0-.11-.08-.16l-.07-.11a.86.86,0,0,0-.1-.16l-.08-.11L49.24,17l-.1-.12-.11-.1-.12-.12-.11-.08-.13-.11-.12-.07-.14-.09-.13-.07-.14-.06a.52.52,0,0,0-.15-.07l-.13,0L47.7,16l-.13,0-.16,0-.16,0h-.32a3.12,3.12,0,0,0-2,.6l-7.87,5.71h9.73a3.09,3.09,0,0,0,1.93-.66l.13-.1.12-.11.1-.1.12-.13Z"/></g><g class="cls-30"><path class="cls-27" d="M12.89,22.17,5,16.43a3.14,3.14,0,0,0-1.95-.6H2.91l-.16,0-.14,0-.17,0-.13,0L2.15,16,2,16a.61.61,0,0,0-.14.07l-.14.06-.13.07-.15.09-.1.07-.15.11-.1.08L1,16.71a.94.94,0,0,1-.1.1l-.1.12a.69.69,0,0,0-.11.13.76.76,0,0,0-.08.11,1.3,1.3,0,0,0-.1.15.75.75,0,0,0-.07.12,1.09,1.09,0,0,0-.08.15l-.06.13a.94.94,0,0,0-.06.15L.15,18a.74.74,0,0,1,0,.14c0,.05,0,.11,0,.16s0,.09,0,.14l0,.17c0,.05,0,.09,0,.13s0,.12,0,.19v.13c0,.06,0,.12,0,.18a.77.77,0,0,0,0,.15.77.77,0,0,0,0,.15l0,.16a.5.5,0,0,0,0,.13A1.09,1.09,0,0,0,.17,20s0,.08,0,.12.05.11.07.16l.06.13.07.14.09.13.08.12.1.14.08.1.12.13.1.1.12.1.13.11a3.18,3.18,0,0,0,1.93.67Z"/><polygon class="cls-27" points="25.79 15.85 24.2 15.85 22.15 22.18 27.84 22.18 25.79 15.85"/><path class="cls-27" d="M5,16.43l7.86,5.74H15.5l2.05-6.33H3.08A3.14,3.14,0,0,1,5,16.43Z"/><path class="cls-27" d="M37.11,22.19,45,16.48a3.12,3.12,0,0,1,2-.6H32.44l2.05,6.33Z"/><polygon class="cls-27" points="22.15 22.18 24.2 15.85 17.55 15.84 15.49 22.17 22.15 22.18"/></g><g class="cls-31"><polygon class="cls-27" points="27.84 22.18 29.6 27.64 34.99 23.73 34.49 22.19 27.84 22.18"/><path class="cls-27" d="M28,4.14l-3,9.28.79,2.43h6.65L28,2.19l0-.08A3.07,3.07,0,0,1,28,4.14Z"/><path class="cls-27" d="M32.45,36.42l7.87,5.74a3.14,3.14,0,0,1,1.17,1.67.29.29,0,0,0,0-.09L37,30.07,31.66,34Z"/><polygon class="cls-27" points="27.84 22.18 34.49 22.19 32.44 15.86 25.79 15.85 27.84 22.18"/><path class="cls-27" d="M22,4.14l3,9.28,3-9.28a3.07,3.07,0,0,0,0-2l-.06-.17-.06-.14s-.05-.08-.07-.13l-.08-.15a1,1,0,0,1-.08-.11l-.1-.14a.76.76,0,0,0-.08-.11L27.34,1a.52.52,0,0,0-.1-.11,1.14,1.14,0,0,0-.11-.11L27,.72,26.9.63,26.76.54,26.64.46,26.5.38,26.36.31,26.23.25,26.06.18l-.12,0L25.75.09l-.12,0-.18,0h-.89l-.18,0-.12,0-.19.05L24,.18l-.17.07-.13.06a.61.61,0,0,0-.14.07l-.14.08-.12.07-.14.1L23,.72l-.12.1-.11.11a.94.94,0,0,0-.1.1l-.11.13-.09.1-.1.15-.07.11a1.09,1.09,0,0,0-.08.15.83.83,0,0,0-.07.13l-.06.14a.87.87,0,0,0-.07.17A3.2,3.2,0,0,0,22,4.14Z"/></g><circle class="cls-27" cx="39.88" cy="5.39" r="3.28"/></g></g></svg>