<svg xmlns="http://www.w3.org/2000/svg" xmlns:xlink="http://www.w3.org/1999/xlink" viewBox="0 0 39.91 40.88"><defs><style>.cls-1{fill:url(#Blanc_Noir);}.cls-2{fill:url(#Blanc_Noir-2);}.cls-3{fill:url(#Blanc_Noir-3);}.cls-4{fill:url(#Blanc_Noir-4);}.cls-5{fill:url(#Blanc_Noir-5);}.cls-6{fill:url(#Blanc_Noir-6);}.cls-7{mask:url(#mask);}.cls-8{fill:#fff;}.cls-9{mask:url(#mask-2);}.cls-10{mask:url(#mask-3);}.cls-11{mask:url(#mask-4);}.cls-12{mask:url(#mask-5);}.cls-13{mask:url(#mask-6);}</style><linearGradient id="Blanc_Noir" x1="-3375.94" y1="-2141.97" x2="-3358.64" y2="-2141.97" gradientTransform="translate(-2219.74 3322.95) rotate(91.39)" gradientUnits="userSpaceOnUse"><stop offset="0" stop-color="#fff"/><stop offset="1"/></linearGradient><linearGradient id="Blanc_Noir-2" x1="-3376.27" y1="-2155.29" x2="-3358.97" y2="-2155.29" xlink:href="#Blanc_Noir"/><linearGradient id="Blanc_Noir-3" x1="-3376.59" y1="-2168.61" x2="-3359.29" y2="-2168.61" xlink:href="#Blanc_Noir"/><linearGradient id="Blanc_Noir-4" x1="-3388.87" y1="-1016.88" x2="-3371.57" y2="-1016.88" gradientTransform="translate(1135.2 -3322.31) rotate(-88.61)" xlink:href="#Blanc_Noir"/><linearGradient id="Blanc_Noir-5" x1="-3389.2" y1="-1030.2" x2="-3371.89" y2="-1030.2" gradientTransform="translate(1135.2 -3322.31) rotate(-88.61)" xlink:href="#Blanc_Noir"/><linearGradient id="Blanc_Noir-6" x1="-3389.52" y1="-1043.52" x2="-3372.22" y2="-1043.52" gradientTransform="translate(1135.2 -3322.31) rotate(-88.61)" xlink:href="#Blanc_Noir"/><mask id="mask" x="0" y="0" width="6.6" height="17.23" maskUnits="userSpaceOnUse"><path class="cls-1" d="M6.6,4.56V17.23H0l.05-14a3.27,3.27,0,0,1,6.54.17h0Z"/></mask><mask id="mask-2" x="13.32" y="0" width="6.6" height="17.23" maskUnits="userSpaceOnUse"><path class="cls-2" d="M19.92,4.56V17.23h-6.6l0-14a3.27,3.27,0,0,1,6.54.17h0Z"/></mask><mask id="mask-3" x="26.65" y="0" width="6.6" height="17.23" maskUnits="userSpaceOnUse"><path class="cls-3" d="M33.25,4.56V17.23h-6.6l0-14a3.27,3.27,0,0,1,6.54.17h0Z"/></mask><mask id="mask-4" x="33.31" y="23.65" width="6.6" height="17.23" maskUnits="userSpaceOnUse"><path class="cls-4" d="M33.31,36.32V23.65h6.6l0,14a3.27,3.27,0,0,1-6.54-.16h0Z"/></mask><mask id="mask-5" x="19.99" y="23.65" width="6.6" height="17.23" maskUnits="userSpaceOnUse"><path class="cls-5" d="M20,36.32V23.65h6.6l-.05,14A3.27,3.27,0,1,1,20,37.53h0Z"/></mask><mask id="mask-6" x="6.66" y="23.65" width="6.6" height="17.23" maskUnits="userSpaceOnUse"><path class="cls-6" d="M6.66,36.32V23.65h6.6l0,14a3.28,3.28,0,0,1-6.55-.16h0Z"/></mask></defs><title>Fichier 10</title><g id="Calque_2" data-name="Calque 2"><g id="_9" data-name="9"><g class="cls-7"><path class="cls-8" d="M6.6,4.56V17.23H0l.05-14a3.27,3.27,0,0,1,6.54.17h0Z"/><path class="cls-8" d="M6.6,4.56V17.23H0l.05-14a3.27,3.27,0,0,1,6.54.17h0Z"/><path class="cls-8" d="M6.6,4.56V17.23H0l.05-14a3.27,3.27,0,0,1,6.54.17h0Z"/></g><g class="cls-9"><path class="cls-8" d="M19.92,4.56V17.23h-6.6l0-14a3.27,3.27,0,0,1,6.54.17h0Z"/><path class="cls-8" d="M19.92,4.56V17.23h-6.6l0-14a3.27,3.27,0,0,1,6.54.17h0Z"/><path class="cls-8" d="M19.92,4.56V17.23h-6.6l0-14a3.27,3.27,0,0,1,6.54.17h0Z"/></g><g class="cls-10"><path class="cls-8" d="M33.25,4.56V17.23h-6.6l0-14a3.27,3.27,0,0,1,6.54.17h0Z"/><path class="cls-8" d="M33.25,4.56V17.23h-6.6l0-14a3.27,3.27,0,0,1,6.54.17h0Z"/><path class="cls-8" d="M33.25,4.56V17.23h-6.6l0-14a3.27,3.27,0,0,1,6.54.17h0Z"/></g><g class="cls-11"><path class="cls-8" d="M33.31,36.32V23.65h6.6l0,14a3.27,3.27,0,0,1-6.54-.16h0Z"/><path class="cls-8" d="M33.31,36.32V23.65h6.6l0,14a3.27,3.27,0,0,1-6.54-.16h0Z"/><path class="cls-8" d="M33.31,36.32V23.65h6.6l0,14a3.27,3.27,0,0,1-6.54-.16h0Z"/></g><g class="cls-12"><path class="cls-8" d="M20,36.32V23.65h6.6l-.05,14A3.27,3.27,0,1,1,20,37.53h0Z"/><path class="cls-8" d="M20,36.32V23.65h6.6l-.05,14A3.27,3.27,0,1,1,20,37.53h0Z"/><path class="cls-8" d="M20,36.32V23.65h6.6l-.05,14A3.27,3.27,0,1,1,20,37.53h0Z"/></g><g class="cls-13"><path class="cls-8" d="M6.66,36.32V23.65h6.6l0,14a3.28,3.28,0,0,1-6.55-.16h0Z"/><path class="cls-8" d="M6.66,36.32V23.65h6.6l0,14a3.28,3.28,0,0,1-6.55-.16h0Z"/><path class="cls-8" d="M6.66,36.32V23.65h6.6l0,14a3.28,3.28,0,0,1-6.55-.16h0Z"/></g></g></g></svg>