<svg xmlns="http://www.w3.org/2000/svg" xmlns:xlink="http://www.w3.org/1999/xlink" viewBox="0 0 42.64 45.17"><defs><style>.cls-1{fill:url(#Blanc_Noir);}.cls-2{fill:url(#Blanc_Noir-2);}.cls-3{fill:url(#Dégradé_sans_nom_12);}.cls-4{mask:url(#mask);}.cls-5{fill:#fff;stroke:#fff;stroke-miterlimit:10;}.cls-6{mask:url(#mask-2);}.cls-7{mask:url(#mask-3);}</style><linearGradient id="Blanc_Noir" x1="0.51" y1="22.59" x2="24.27" y2="22.59" gradientUnits="userSpaceOnUse"><stop offset="0" stop-color="#fff"/><stop offset="1"/></linearGradient><linearGradient id="Blanc_Noir-2" x1="18.38" y1="22.59" x2="42.14" y2="22.59" xlink:href="#Blanc_Noir"/><linearGradient id="Dégradé_sans_nom_12" x1="0.5" y1="30.32" x2="41.94" y2="30.32" gradientUnits="userSpaceOnUse"><stop offset="0"/><stop offset="1" stop-color="#fff"/></linearGradient><mask id="mask" x="0.01" y="0" width="24.76" height="45.17" maskUnits="userSpaceOnUse"><path class="cls-1" d="M18.63,2.25h0A2.95,2.95,0,0,1,24,4.64L6.15,42.92h0A2.94,2.94,0,0,1,.76,40.54Z"/></mask><mask id="mask-2" x="17.88" y="0" width="24.76" height="45.17" maskUnits="userSpaceOnUse"><path class="cls-2" d="M36.5,42.92h0a2.94,2.94,0,0,0,5.38-2.39L24,2.25h0a2.95,2.95,0,1,0-5.38,2.4Z"/></mask><mask id="mask-3" x="0" y="15.47" width="42.44" height="29.71" maskUnits="userSpaceOnUse"><path class="cls-3" d="M5.08,44.18h0a2.94,2.94,0,1,1-3.26-4.9L37.36,16.46h0a2.95,2.95,0,0,1,3.27,4.9Z"/></mask></defs><title>Fichier 9</title><g id="Calque_2" data-name="Calque 2"><g id="_9" data-name="9"><g class="cls-4"><path class="cls-5" d="M18.63,2.25h0A2.95,2.95,0,0,1,24,4.64L6.15,42.92h0A2.94,2.94,0,0,1,.76,40.54Z"/></g><g class="cls-6"><path class="cls-5" d="M36.5,42.92h0a2.94,2.94,0,0,0,5.38-2.39L24,2.25h0a2.95,2.95,0,1,0-5.38,2.4Z"/></g><g class="cls-7"><path class="cls-5" d="M5.08,44.18h0a2.94,2.94,0,1,1-3.26-4.9L37.36,16.46h0a2.95,2.95,0,0,1,3.27,4.9Z"/></g></g></g></svg>